<svg xmlns="http://www.w3.org/2000/svg" version="1.1" xmlns:xlink="http://www.w3.org/1999/xlink" xmlns:svgjs="http://svgjs.dev/svgjs" viewBox="0 0 800 800"><g fill="hsl(105, 23%, 68%)"><path d="M525 499H575C603 499 625 521 625 549H575C547 549 525 527 525 499Z " transform="matrix(-0.21411309658206465,-0.4202206127181989,0.4202206127181989,-0.21411309658206465,477.9194294703509,877.8221149219662)" opacity="0.72"></path><path d="M106 259H156C184 259 206 281 206 309H156C128 309 106 287 106 259Z " transform="matrix(-0.1719606902880208,-0.44797291382652,0.44797291382652,-0.1719606902880208,55.601560158199575,402.720610598735)" opacity="0.74"></path><path d="M676 368H726C754 368 776 390 776 418H726C698 418 676 396 676 368Z " transform="matrix(-0.3842624398249716,-0.09580738668920798,0.09580738668920798,-0.3842624398249716,967.3222283440707,613.5713015875788)" opacity="0.61"></path><path d="M-2 117H48C76 117 98 139 98 167H48C20 167 -2 145 -2 117Z " transform="matrix(-0.38289709289056584,-0.12441080711046569,0.12441080711046569,-0.38289709289056584,48.71272584906103,202.34310593176266)" opacity="0.62"></path><path d="M171 117H221C249 117 271 139 271 167H221C193 167 171 145 171 117Z " transform="matrix(0.04535663319548304,-0.5184286897015342,0.5184286897015342,0.04535663319548304,137.3593101261804,250.13209851028046)" opacity="0.80"></path><path d="M629 160H679C707 160 729 182 729 210H679C651 210 629 188 629 160Z " transform="matrix(-0.3643297006792605,-0.21034585076094692,0.21034585076094692,-0.3643297006792605,887.4658843704427,395.22582729234614)" opacity="0.65"></path><path d="M195 317H245C273 317 295 339 295 367H245C217 367 195 345 195 317Z " transform="matrix(0.02707981515037005,-0.5167136543626231,0.5167136543626231,0.02707981515037005,61.649375496142255,459.3335485374161)" opacity="0.80"></path><path d="M595 432H645C673 432 695 454 695 482H645C617 482 595 460 595 432Z " transform="matrix(-0.3303840905217211,-0.2871985082760079,0.2871985082760079,-0.3303840905217211,726.8480201043744,793.2285672064517)" opacity="0.67"></path><path d="M4 324H54C82 324 104 346 104 374H54C26 374 4 352 4 324Z " transform="matrix(-0.37450573841874,-0.17463489384765105,0.17463489384765105,-0.37450573841874,13.275731921781734,489.1327869759134)" opacity="0.63"></path><path d="M586 612H636C664 612 686 634 686 662H636C608 662 586 640 586 612Z " transform="matrix(-0.3303840905217211,-0.2871985082760079,0.2871985082760079,-0.3303840905217211,663.1788317999975,1030.1129169258775)" opacity="0.67"></path><path d="M458 736H508C536 736 558 758 558 786H508C480 786 458 764 458 736Z " transform="matrix(-0.06114811746770704,-0.498011452075492,0.498011452075492,-0.06114811746770704,160.07652864414575,1060.523535047275)" opacity="0.77"></path><path d="M487 390H537C565 390 587 412 587 440H537C509 440 487 418 487 390Z " transform="matrix(-0.1343513699643316,-0.4685389081634243,0.4685389081634243,-0.1343513699643316,414.703038783025,722.3612122189564)" opacity="0.75"></path><path d="M335 196H385C413 196 435 218 435 246H385C357 246 335 224 335 196Z " transform="matrix(0.12906124120124163,-0.5176363654684114,0.5176363654684114,0.12906124120124163,220.91378536900305,391.7674663998639)" opacity="0.82"></path><path d="M200 427H250C278 427 300 449 300 477H250C222 477 200 455 200 427Z " transform="matrix(0.06368455132765748,-0.518669048122571,0.518669048122571,0.06368455132765748,-0.35954758331646985,552.8818448305416)" opacity="0.80"></path><path d="M540 181H590C618 181 640 203 640 231H590C562 231 540 209 540 181Z " transform="matrix(-0.2455351095612711,-0.3929383139227794,0.3929383139227794,-0.2455351095612711,653.9204219730574,488.41383778406174)" opacity="0.71"></path><path d="M586 725H636C664 725 686 747 686 775H636C608 775 586 753 586 725Z " transform="matrix(-0.3303840905217211,-0.2871985082760079,0.2871985082760079,-0.3303840905217211,630.7254003648087,1180.4463191548318)" opacity="0.67"></path><path d="M575 341H625C653 341 675 363 675 391H625C597 391 575 369 575 341Z " transform="matrix(-0.30441046952612755,-0.326440262523741,0.326440262523741,-0.30441046952612755,695.7794073701405,681.439395923901)" opacity="0.69"></path><path d="M490 98H540C568 98 590 120 590 148H540C512 148 490 126 490 98Z " transform="matrix(-0.22715583432014227,-0.4097999730020604,0.4097999730020604,-0.22715583432014227,612.2587538536234,372.2321530424901)" opacity="0.72"></path><path d="M466 573H516C544 573 566 595 566 623H516C488 623 466 601 466 573Z " transform="matrix(-0.06114811746770704,-0.498011452075492,0.498011452075492,-0.06114811746770704,249.7415802721926,891.5404835166428)" opacity="0.77"></path><path d="M348 555H398C426 555 448 577 448 605H398C370 605 348 583 348 555Z " transform="matrix(0.12906124120124163,-0.5176363654684114,0.5176363654684114,0.12906124120124163,46.40453403022718,711.1637535597076)" opacity="0.82"></path><path d="M102 376H152C180 376 202 398 202 426H152C124 426 102 404 102 376Z " transform="matrix(-0.1719606902880208,-0.44797291382652,0.44797291382652,-0.1719606902880208,-1.4991135206553565,538.0481197071274)" opacity="0.74"></path><path d="M1 22H51C79 22 101 44 101 72H51C23 72 1 50 1 22Z " transform="matrix(-0.36680543722958775,-0.2033235739784509,0.2033235739784509,-0.36680543722958775,60.150869321721785,74.60935782269162)" opacity="0.64"></path><path d="M3 527H53C81 527 103 549 103 577H53C25 577 3 555 3 527Z " transform="matrix(-0.37450573841874,-0.17463489384765105,0.17463489384765105,-0.37450573841874,-23.54965726771016,767.9828169810701)" opacity="0.63"></path><path d="M439 193H489C517 193 539 215 539 243H489C461 243 439 221 439 193Z " transform="matrix(-0.026597385895529617,-0.5075083558088505,0.5075083558088505,-0.026597385895529617,391.36930013658457,471.9698161157533)" opacity="0.78"></path><path d="M309 464H359C387 464 409 486 409 514H359C331 514 309 492 309 464Z " transform="matrix(0.13867944043054625,-0.5175587176520194,0.5175587176520194,0.13867944043054625,56.12786795359642,606.9893332665379)" opacity="0.82"></path><path d="M387 389H437C465 389 487 411 487 439H437C409 439 387 417 387 389Z " transform="matrix(0.07292838090265975,-0.5189123933772879,0.5189123933772879,0.07292838090265975,190.30056668734048,610.5723662121736)" opacity="0.81"></path><path d="M547 12H597C625 12 647 34 647 62H597C569 62 547 40 547 12Z " transform="matrix(-0.37395586927998276,-0.17437848565726544,0.17437848565726544,-0.37395586927998276,813.7996499908307,154.94032310074684)" opacity="0.63"></path><path d="M7 727H57C85 727 107 749 107 777H57C29 777 7 755 7 727Z " transform="matrix(-0.37450573841874,-0.17463489384765105,0.17463489384765105,-0.37450573841874,-52.97861308356542,1043.5825042402084)" opacity="0.63"></path><path d="M422 480H472C500 480 522 502 522 530H472C444 530 422 508 422 480Z " transform="matrix(0.008972325566652693,-0.5140241874522259,0.5140241874522259,0.008972325566652693,208.18284766916582,743.088392066291)" opacity="0.79"></path><path d="M0 222H50C78 222 100 244 100 272H50C22 272 0 250 0 222Z " transform="matrix(-0.37450573841874,-0.17463489384765105,0.17463489384765105,-0.37450573841874,25.59046814056719,348.2346620818113)" opacity="0.63"></path><path d="M401 293H451C479 293 501 315 501 343H451C423 343 401 321 401 293Z " transform="matrix(0.04526769416751789,-0.5174121119601358,0.5174121119601358,0.04526769416751789,266.04721832712625,536.9577357487506)" opacity="0.80"></path><path d="M622 525H672C700 525 722 547 722 575H672C644 575 622 553 622 525Z " transform="matrix(-0.3643297006792605,-0.21034585076094692,0.21034585076094692,-0.3643297006792605,801.1393409379423,891.7337470849496)" opacity="0.65"></path><path d="M114 496H164C192 496 214 518 214 546H164C136 546 114 524 114 496Z " transform="matrix(-0.1719606902880208,-0.44797291382652,0.44797291382652,-0.1719606902880208,-41.19233489638151,684.0590775076082)" opacity="0.74"></path><path d="M506 660H556C584 660 606 682 606 710H556C528 710 506 688 506 660Z " transform="matrix(-0.17189925754073004,-0.44781287604833875,0.44781287604833875,-0.17189925754073004,344.82416709953384,1051.7349504982765)" opacity="0.74"></path></g><g fill="none" stroke-width="3" stroke="hsl(105, 23%, 68%)"><path d="M272 116H322C350 116 372 138 372 166H322C294 166 272 144 272 116Z " transform="matrix(0.17630944435584622,-0.5120398061352294,0.5120398061352294,0.17630944435584622,193.03074625235018,281.01718592136956)" opacity="0.83"></path><path d="M704 448H754C782 448 804 470 804 498H754C726 498 704 476 704 448Z " transform="matrix(-0.3796450528186888,-0.026547368213736353,0.026547368213736353,-0.3796450528186888,1027.6954646601941,672.588825616397)" opacity="0.58"></path><path d="M431 18H481C509 18 531 40 531 68H481C453 68 431 46 431 18Z " transform="matrix(-0.08632609098878989,-0.48957959038338833,0.48957959038338833,-0.08632609098878989,501.4709273791222,282.1998048869277)" opacity="0.76"></path><path d="M396 647H446C474 647 496 669 496 697H446C418 697 396 675 396 647Z " transform="matrix(0.07292838090265975,-0.5189123933772879,0.5189123933772879,0.07292838090265975,64.76481376787626,854.4270554796831)" opacity="0.81"></path><path d="M708 548H758C786 548 808 570 808 598H758C730 598 708 576 708 548Z " transform="matrix(-0.3796450528186888,-0.026547368213736353,0.026547368213736353,-0.3796450528186888,1030.5593080500953,810.6595203711208)" opacity="0.58"></path><path d="M88 605H138C166 605 188 627 188 655H138C110 655 88 633 88 605Z " transform="matrix(-0.22071529203726611,-0.41510509104113097,0.41510509104113097,-0.22071529203726611,-93.05749705476975,826.3351365471538)" opacity="0.72"></path><path d="M-4 631H46C74 631 96 653 96 681H46C18 681 -4 659 -4 631Z " transform="matrix(-0.3831423004232434,-0.11713835660403682,0.11713835660403682,-0.3831423004232434,-13.218216112778947,912.7297134814332)" opacity="0.61"></path><path d="M291 368H341C369 368 391 390 391 418H341C313 418 291 396 291 368Z " transform="matrix(0.1386565667148651,-0.5174733517829394,0.5174733517829394,0.1386565667148651,90.35108349953578,514.9663822390404)" opacity="0.82"></path><path d="M602 75H652C680 75 702 97 702 125H652C624 125 602 103 602 75Z " transform="matrix(-0.3772098730457263,-0.006584222825577743,0.006584222825577743,-0.3772098730457263,897.2824149432556,142.01390058684933)" opacity="0.58"></path><path d="M707 204H757C785 204 807 226 807 254H757C729 254 707 232 707 204Z " transform="matrix(-0.3796450528186888,-0.026547368213736353,0.026547368213736353,-0.3796450528186888,1038.3119576628017,336.03507483327814)" opacity="0.58"></path><path d="M227 532H277C305 532 327 554 327 582H277C249 582 227 560 227 532Z " transform="matrix(0.08242231754777143,-0.5203940322602699,0.5203940322602699,0.08242231754777143,-35.69045792970303,655.2399160619862)" opacity="0.81"></path><path d="M696 730H746C774 730 796 752 796 780H746C718 780 696 758 696 730Z " transform="matrix(-0.38340817230296614,-0.06072588878605862,0.06072588878605862,-0.38340817230296614,986.1744505045385,1089.774683123139)" opacity="0.60"></path><path d="M381 106H431C459 106 481 128 481 156H431C403 156 381 134 381 106Z " transform="matrix(0.08238707842941878,-0.520171541223395,0.520171541223395,0.08238707842941878,327.34869729665576,344.40122699302935)" opacity="0.81"></path><path d="M226 726H276C304 726 326 748 326 776H276C248 776 226 754 226 726Z " transform="matrix(0.08242231754777143,-0.5203940322602699,0.5203940322602699,0.08242231754777143,-137.56447787064758,832.7295924254581)" opacity="0.81"></path><path d="M687 14H737C765 14 787 36 787 64H737C709 64 687 42 687 14Z " transform="matrix(-0.20717656390504952,0.22216966458220422,-0.22216966458220422,-0.20717656390504952,898.3537445167275,-116.65915680478759)" opacity="0.46"></path><path d="M709 297H759C787 297 809 319 809 347H759C731 347 709 325 709 297Z " transform="matrix(-0.3796450528186888,-0.026547368213736353,0.026547368213736353,-0.3796450528186888,1038.6023425245617,464.39515948184373)" opacity="0.58"></path><path d="M295 277H345C373 277 395 299 395 327H345C317 327 295 305 295 277Z " transform="matrix(0.1386565667148651,-0.5174733517829394,0.5174733517829394,0.1386565667148651,140.88653224492384,438.6540232172249)" opacity="0.82"></path><path d="M284 633H334C362 633 384 655 384 683H334C306 683 284 661 284 633Z " transform="matrix(0.1386565667148651,-0.5174733517829394,0.5174733517829394,0.1386565667148651,-52.80875875593904,739.6000785971205)" opacity="0.82"></path><path d="M319 21H369C397 21 419 43 419 71H369C341 71 319 49 319 21Z " transform="matrix(0.17649089925677147,-0.5125667894323042,0.5125667894323042,0.17649089925677147,280.29678586036533,227.01856393470877)" opacity="0.83"></path><path d="M339 730H389C417 730 439 752 439 780H389C361 780 339 758 339 730Z " transform="matrix(0.12906124120124163,-0.5176363654684114,0.5176363654684114,0.12906124120124163,-52.020278755933646,858.9193090602746)" opacity="0.82"></path><path d="M5 428H55C83 428 105 450 105 478H55C27 478 5 456 5 428Z " transform="matrix(-0.37450573841874,-0.17463489384765105,0.17463489384765105,-0.37450573841874,-3.5117912999552345,632.25601866531)" opacity="0.63"></path><path d="M211 210H261C289 210 311 232 311 260H261C233 260 211 238 211 210Z " transform="matrix(0.06368455132765748,-0.518669048122571,0.518669048122571,0.06368455132765748,122.4911057946772,355.40675199799153)" opacity="0.80"></path><path d="M614 258H664C692 258 714 280 714 308H664C636 308 614 286 614 258Z " transform="matrix(-0.3515742211779263,-0.24617491990899162,0.24617491990899162,-0.3515742211779263,827.7777805278985,545.9556514129235)" opacity="0.66"></path><path d="M502 278H552C580 278 602 300 602 328H552C524 328 502 306 502 278Z " transform="matrix(-0.17189925754073004,-0.44781287604833875,0.44781287604833875,-0.17189925754073004,511.2010887198363,602.2781826135242)" opacity="0.74"></path><path d="M102 31H152C180 31 202 53 202 81H152C124 81 102 59 102 31Z " transform="matrix(-0.09459450258456818,-0.4866465281601524,0.4866465281601524,-0.09459450258456818,139.12615881588582,135.267564425079)" opacity="0.76"></path><path d="M691 641H741C769 641 791 663 791 691H741C713 691 691 669 691 641Z " transform="matrix(-0.38340817230296614,-0.06072588878605862,0.06072588878605862,-0.38340817230296614,984.662013744983,966.3477263442448)" opacity="0.60"></path><path d="M707 102H757C785 102 807 124 807 152H757C729 152 707 130 707 102Z " transform="matrix(-0.2933300718740384,0.1559663658053658,-0.1559663658053658,-0.2933300718740384,998.8585928659286,46.18638021334097)" opacity="0.51"></path><path d="M210 22H260C288 22 310 44 310 72H260C232 72 210 50 210 22Z " transform="matrix(0.18552598811291207,-0.5097284630622335,0.5097284630622335,0.18552598811291207,187.80600532671787,170.80967895487382)" opacity="0.83"></path><path d="M116 720H166C194 720 216 742 216 770H166C138 770 116 748 116 720Z " transform="matrix(-0.1719606902880208,-0.44797291382652,0.44797291382652,-0.1719606902880208,-139.19434621294596,947.4742179597779)" opacity="0.74"></path><path d="M180 622H230C258 622 280 644 280 672H230C202 672 180 650 180 622Z " transform="matrix(-0.008926324824522078,-0.5113888067005657,0.5113888067005657,-0.008926324824522078,-98.81550322562595,770.3947577025959)" opacity="0.79"></path><path d="M88 154H138C166 154 188 176 188 204H138C110 204 88 182 88 154Z " transform="matrix(-0.20720115249763846,-0.42482531894556536,0.42482531894556536,-0.20720115249763846,90.55002695341791,274.7149003115653)" opacity="0.73"></path></g></svg>