<svg xmlns="http://www.w3.org/2000/svg" version="1.1" xmlns:xlink="http://www.w3.org/1999/xlink" xmlns:svgjs="http://svgjs.dev/svgjs" viewBox="0 0 1422 800"><g fill="hsl(105, 69%, 30%)"><path d="M1315 270H1365C1393 270 1415 292 1415 320H1365C1337 320 1315 298 1315 270Z " transform="matrix(-0.38234756949172793,-0.12423225613464242,0.12423225613464242,-0.38234756949172793,1850.2559167964891,577.3695626238466)" opacity="0.62"></path><path d="M1032 716H1082C1110 716 1132 738 1132 766H1082C1054 766 1032 744 1032 716Z " transform="matrix(-0.26356758365252797,-0.37641351923519306,0.37641351923519306,-0.26356758365252797,1088.257707758757,1343.583007299002)" opacity="0.71"></path><path d="M708 612H758C786 612 808 634 808 662H758C730 662 708 640 708 612Z " transform="matrix(-0.36743428722237004,0.025693508304196543,-0.025693508304196543,-0.36743428722237004,1052.8819545043298,851.5799616660687)" opacity="0.56"></path><path d="M231 650H281C309 650 331 672 331 700H281C253 700 231 678 231 650Z " transform="matrix(0.027673417156227873,0.22538189616617532,-0.22538189616617532,0.027673417156227873,425.3565496912683,592.988130596851)" opacity="0.35"></path><path d="M1301 721H1351C1379 721 1401 743 1401 771H1351C1323 771 1301 749 1301 721Z " transform="matrix(-0.36881222516880585,-0.19610093863431113,0.19610093863431113,-0.36881222516880585,1702.974015981861,1286.0662880708835)" opacity="0.64"></path><path d="M913 403H963C991 403 1013 425 1013 453H963C935 453 913 431 913 403Z " transform="matrix(-0.3482772270026192,-0.25303821695317985,0.25303821695317985,-0.3482772270026192,1190.0906127475614,820.738456083033)" opacity="0.66"></path><path d="M87 468H137C165 468 187 490 187 518H137C109 518 87 496 87 468Z " transform="matrix(-0.16219257413081611,0.24046037978895723,-0.24046037978895723,-0.16219257413081611,277.76734989187764,540.0178670154052)" opacity="0.44"></path><path d="M749 245H799C827 245 849 267 849 295H799C771 295 749 273 749 245Z " transform="matrix(-0.3785076265171973,-0.01983674414746097,0.01983674414746097,-0.3785076265171973,1096.0716726674261,388.04661773346453)" opacity="0.58"></path><path d="M819 489H869C897 489 919 511 919 539H869C841 539 819 517 819 489Z " transform="matrix(-0.3794154709393069,-0.14564395362962496,0.14564395362962496,-0.3794154709393069,1123.8510520806306,835.5841477669477)" opacity="0.62"></path><path d="M614 31H664C692 31 714 53 714 81H664C636 81 614 59 614 31Z " transform="matrix(-0.37726724985344734,-0.013174462668917804,0.013174462668917804,-0.37726724985344734,913.7676839932296,85.87480920395447)" opacity="0.58"></path><path d="M301 733H351C379 733 401 755 401 783H351C323 783 301 761 301 733Z " transform="matrix(0.042167868534859466,0.21693487741591921,-0.21693487741591921,0.042167868534859466,500.6357152255311,649.8926136775889)" opacity="0.34"></path><path d="M197 246H247C275 246 297 268 297 296H247C219 296 197 274 197 246Z " transform="matrix(0.008178434553204461,0.23419972332331093,-0.23419972332331093,0.008178434553204461,308.44805168597577,210.93631257522378)" opacity="0.36"></path><path d="M8 31H58C86 31 108 53 108 81H58C30 81 8 59 8 31Z " transform="matrix(-0.33405981647729055,0.10213233533955718,-0.10213233533955718,-0.33405981647729055,83.09488013469807,68.78367427303395)" opacity="0.54"></path><path d="M244 26H294C322 26 344 48 344 76H294C266 76 244 54 244 26Z " transform="matrix(0.07363150511850265,0.19181662880115688,-0.19181662880115688,0.07363150511850265,282.13498556401925,-9.149295628583758)" opacity="0.31"></path><path d="M1321 150H1371C1399 150 1421 172 1421 200H1371C1343 200 1321 178 1321 150Z " transform="matrix(-0.3650645769646082,-0.21077013178211346,0.21077013178211346,-0.3650645769646082,1834.618761956608,527.852151642084)" opacity="0.65"></path><path d="M488 395H538C566 395 588 417 588 445H538C510 445 488 423 488 395Z " transform="matrix(-0.11631588762605756,0.24944022597929263,-0.24944022597929263,-0.11631588762605756,705.3428424541218,334.6538312260847)" opacity="0.42"></path><path d="M728 32H778C806 32 828 54 828 82H778C750 82 728 60 728 32Z " transform="matrix(-0.2801886665454259,-0.3586251391801549,0.3586251391801549,-0.2801886665454259,975.5451496390725,351.98111227524976)" opacity="0.70"></path><path d="M1162 721H1212C1240 721 1262 743 1262 771H1212C1184 771 1162 749 1162 721Z " transform="matrix(-0.2398908035476008,-0.3992453423488507,0.3992453423488507,-0.2398908035476008,1204.9106285074495,1408.8438943733172)" opacity="0.72"></path><path d="M105 173H155C183 173 205 195 205 223H155C127 223 105 201 105 173Z " transform="matrix(-0.10646578726906249,0.2508176768171093,-0.2508176768171093,-0.10646578726906249,221.16409703649236,180.20348597262242)" opacity="0.42"></path><path d="M444 116H494C522 116 544 138 544 166H494C466 166 444 144 444 116Z " transform="matrix(-0.03027448145890812,0.2465658649286417,-0.2465658649286417,-0.03027448145890812,543.7213807956391,23.46516461095706)" opacity="0.38"></path><path d="M1294 503H1344C1372 503 1394 525 1394 553H1344C1316 553 1294 531 1294 503Z " transform="matrix(-0.36881222516880585,-0.19610093863431113,0.19610093863431113,-0.36881222516880585,1736.1423350279586,986.2925164136436)" opacity="0.64"></path><path d="M503 508H553C581 508 603 530 603 558H553C525 558 503 536 503 508Z " transform="matrix(-0.11631588762605756,0.24944022597929263,-0.24944022597929263,-0.11631588762605756,750.2743263041727,457.05592313813986)" opacity="0.42"></path><path d="M758 723H808C836 723 858 745 858 773H808C780 773 758 751 758 723Z " transform="matrix(-0.38405940065184996,-0.060829033223620044,0.060829033223620044,-0.38405940065184996,1072.819878875427,1084.4262905322687)" opacity="0.60"></path><path d="M970 167H1020C1048 167 1070 189 1070 217H1020C992 217 970 195 970 167Z " transform="matrix(-0.3042818679246139,-0.3263023541902187,0.3263023541902187,-0.3042818679246139,1267.7174532785843,583.2505199155491)" opacity="0.68"></path><path d="M828 611H878C906 611 928 633 928 661H878C850 661 828 639 828 611Z " transform="matrix(-0.3794154709393069,-0.14564395362962496,0.14564395362962496,-0.3794154709393069,1118.49722897627,1005.18363080421)" opacity="0.62"></path><path d="M1091 313H1141C1169 313 1191 335 1191 363H1141C1113 363 1091 341 1091 313Z " transform="matrix(-0.23354596271245773,-0.4045134733205629,0.4045134733205629,-0.23354596271245773,1270.750389472564,878.488408455573)" opacity="0.72"></path><path d="M468 218H518C546 218 568 240 568 268H518C490 268 468 246 468 218Z " transform="matrix(-0.0723024541517522,0.2521486229339658,-0.2521486229339658,-0.0723024541517522,616.7247866235614,129.9565096790815)" opacity="0.40"></path><path d="M835 144H885C913 144 935 166 935 194H885C857 194 835 172 835 144Z " transform="matrix(-0.34469097891331457,-0.25974328319402484,0.25974328319402484,-0.34469097891331457,1146.1549014784932,457.1255810630621)" opacity="0.66"></path><path d="M82 627H132C160 627 182 649 182 677H132C104 677 82 655 82 627Z " transform="matrix(-0.16219257413081611,0.24046037978895723,-0.24046037978895723,-0.16219257413081611,310.18958740766783,726.0087882011497)" opacity="0.44"></path><path d="M123 40H173C201 40 223 62 223 90H173C145 90 123 68 123 40Z " transform="matrix(-0.06265448274990904,0.2512934048138856,-0.2512934048138856,-0.06265448274990904,200.17329682863684,25.598782345941878)" opacity="0.40"></path><path d="M605 571H655C683 571 705 593 705 621H655C627 621 605 599 605 571Z " transform="matrix(-0.289453301448923,0.16044658496602493,-0.16044658496602493,-0.289453301448923,940.2180770887954,663.4216545108118)" opacity="0.51"></path><path d="M945 41H995C1023 41 1045 63 1045 91H995C967 91 945 69 945 41Z " transform="matrix(0.054519505169198575,-0.5187184420436298,0.5187184420436298,0.054519505169198575,906.5176751817679,578.5265624922448)" opacity="0.80"></path><path d="M334 119H384C412 119 434 141 434 169H384C356 169 334 147 334 119Z " transform="matrix(0.06169544555201994,0.20179670963237012,-0.20179670963237012,0.06169544555201994,389.36767509508564,57.62591934167901)" opacity="0.32"></path><path d="M162 564H212C240 564 262 586 262 614H212C184 614 162 592 162 564Z " transform="matrix(-0.02130123154938707,0.2434741907227241,-0.2434741907227241,-0.02130123154938707,359.92215942415453,549.9298969493715)" opacity="0.37"></path><path d="M1212 155H1262C1290 155 1312 177 1312 205H1262C1234 205 1212 183 1212 155Z " transform="matrix(-0.27946087699928385,-0.35769361104057285,0.35769361104057285,-0.27946087699928385,1550.2947767857931,681.712294993074)" opacity="0.70"></path><path d="M286 319H336C364 319 386 341 386 369H336C308 369 286 347 286 319Z " transform="matrix(0.042167868534859466,0.21693487741591921,-0.21693487741591921,0.042167868534859466,396.45719400336344,256.6041344122595)" opacity="0.34"></path><path d="M609 715H659C687 715 709 737 709 765H659C631 765 609 743 609 715Z " transform="matrix(-0.289453301448923,0.16044658496602493,-0.16044658496602493,-0.289453301448923,968.4801985296987,848.4611435795927)" opacity="0.51"></path><path d="M1039 597H1089C1117 597 1139 619 1139 647H1089C1061 647 1039 625 1039 597Z " transform="matrix(-0.26356758365252797,-0.37641351923519306,0.37641351923519306,-0.26356758365252797,1141.895889633313,1195.8533594789976)" opacity="0.71"></path><path d="M290 423H340C368 423 390 445 390 473H340C312 473 290 451 290 423Z " transform="matrix(0.042167868534859466,0.21693487741591921,-0.21693487741591921,0.042167868534859466,422.84974978047967,355.35093657497043)" opacity="0.34"></path><path d="M1178 36H1228C1256 36 1278 58 1278 86H1228C1200 86 1178 64 1178 36Z " transform="matrix(0.09159583235956907,-0.5194657788135768,0.5194657788135768,0.09159583235956907,1083.832905354821,693.3166306091385)" opacity="0.81"></path><path d="M836 29H886C914 29 936 51 936 79H886C858 79 836 57 836 29Z " transform="matrix(-0.09462787354978844,-0.486818206893293,0.486818206893293,-0.09462787354978844,943.5521127928747,490.4308364791462)" opacity="0.76"></path><path d="M496 24H546C574 24 596 46 596 74H546C518 74 496 52 496 24Z " transform="matrix(-0.16149709750795116,0.23942929329338458,-0.23942929329338458,-0.16149709750795116,645.9094506107172,-73.81503636029838)" opacity="0.44"></path><path d="M502 631H552C580 631 602 653 602 681H552C524 681 502 659 502 631Z " transform="matrix(-0.11631588762605756,0.24944022597929263,-0.24944022597929263,-0.11631588762605756,779.8391582119997,594.6122175421242)" opacity="0.42"></path><path d="M219 135H269C297 135 319 157 319 185H269C241 185 219 163 219 135Z " transform="matrix(0.04205711086819089,0.21636507861705992,-0.21636507861705992,0.04205711086819089,292.30504975518625,95.06865611310033)" opacity="0.34"></path><path d="M545 308H595C623 308 645 330 645 358H595C567 358 545 336 545 308Z " transform="matrix(-0.20664908250115493,0.22160401002954777,-0.22160401002954777,-0.20664908250115493,791.7503394280265,269.9597585053037)" opacity="0.46"></path><path d="M330 218H380C408 218 430 240 430 268H380C352 268 330 246 330 218Z " transform="matrix(0.038568320771021715,0.21873181640187944,-0.21873181640187944,0.038568320771021715,418.4958694926685,150.50980781992752)" opacity="0.34"></path><path d="M403 545H453C481 545 503 567 503 595H453C425 595 403 573 403 545Z " transform="matrix(-0.00838760282906553,0.24018951904962166,-0.24018951904962166,-0.00838760282906553,593.7076099398512,465.97508148308873)" opacity="0.37"></path><path d="M367 648H417C445 648 467 670 467 698H417C389 698 367 676 367 648Z " transform="matrix(0.016183186967892223,0.23143035579779603,-0.23143035579779603,0.016183186967892223,566.0042404863058,565.6022568029276)" opacity="0.35"></path><path d="M7 711H57C85 711 107 733 107 761H57C29 761 7 739 7 711Z " transform="matrix(-0.3404837594224303,0.09123234837315297,-0.09123234837315297,-0.3404837594224303,143.5545826897191,981.3958030776391)" opacity="0.54"></path><path d="M669 347H719C747 347 769 369 769 397H719C691 397 669 375 669 347Z " transform="matrix(-0.3489187212859501,0.07416496369884229,-0.07416496369884229,-0.3489187212859501,997.4619271005674,448.47315541890583)" opacity="0.55"></path><path d="M905 707H955C983 707 1005 729 1005 757H955C927 757 905 735 905 707Z " transform="matrix(-0.3482772270026192,-0.25303821695317985,0.25303821695317985,-0.3482772270026192,1102.3807769777736,1228.590427356204)" opacity="0.66"></path><path d="M697 137H747C775 137 797 159 797 187H747C719 187 697 165 697 137Z " transform="matrix(-0.38317730353626683,-0.05385205807799858,0.05385205807799858,-0.38317730353626683,1024.5094123329554,264.30221055714014)" opacity="0.59"></path><path d="M369 22H419C447 22 469 44 469 72H419C391 72 369 50 369 22Z " transform="matrix(0.0420569139225534,0.21636406541958964,-0.21636406541958964,0.0420569139225534,411.54726414117084,-45.63321836516808)" opacity="0.34"></path><path d="M1035 442H1085C1113 442 1135 464 1135 492H1085C1057 492 1035 470 1035 442Z " transform="matrix(-0.26356758365252797,-0.37641351923519306,0.37641351923519306,-0.26356758365252797,1195.1857147801577,998.4947299359152)" opacity="0.71"></path><path d="M1181 406H1231C1259 406 1281 428 1281 456H1231C1203 456 1181 434 1181 406Z " transform="matrix(-0.25789447432864193,-0.382344281634755,0.382344281634755,-0.25789447432864193,1383.6777125139788,1012.818329128028)" opacity="0.71"></path><path d="M1306 33H1356C1384 33 1406 55 1406 83H1356C1328 83 1306 61 1306 33Z " transform="matrix(-0.13439789920243977,-0.46870117490046365,0.46870117490046365,-0.13439789920243977,1511.0588831742814,701.3538713187702)" opacity="0.75"></path><path d="M1313 612H1363C1391 612 1413 634 1413 662H1363C1335 662 1313 640 1313 612Z " transform="matrix(-0.38234756949172793,-0.12423225613464242,0.12423225613464242,-0.38234756949172793,1805.003790059458,1049.8839668777482)" opacity="0.62"></path><path d="M-2 554H48C76 554 98 576 98 604H48C20 604 -2 582 -2 554Z " transform="matrix(-0.3404837594224303,0.09123234837315297,-0.09123234837315297,-0.3404837594224303,117.16675016033223,771.7609439836758)" opacity="0.54"></path><path d="M1 404H51C79 404 101 426 101 454H51C23 454 1 432 1 404Z " transform="matrix(-0.3404837594224303,0.09123234837315297,-0.09123234837315297,-0.3404837594224303,107.50334918262658,570.4146830251918)" opacity="0.54"></path><path d="M388 433H438C466 433 488 455 488 483H438C410 483 388 461 388 433Z " transform="matrix(0.016183186967892223,0.23143035579779603,-0.23143035579779603,0.016183186967892223,536.9068670634538,349.22160452927073)" opacity="0.35"></path><path d="M3 145H53C81 145 103 167 103 195H53C25 195 3 173 3 145Z " transform="matrix(-0.3395534959509125,0.09098308502721159,-0.09098308502721159,-0.3395534959509125,86.46345974002433,222.90199080521288)" opacity="0.54"></path><path d="M596 438H646C674 438 696 460 696 488H646C618 488 596 466 596 438Z " transform="matrix(-0.24989588680940553,0.1952400644873382,-0.1952400644873382,-0.24989588680940553,897.8288927365136,452.5767139339343)" opacity="0.49"></path><path d="M145 727H195C223 727 245 749 245 777H195C167 777 145 755 145 727Z " transform="matrix(-0.057851714250028725,0.2505833045599805,-0.2505833045599805,-0.057851714250028725,394.7197293078609,746.6407447268253)" opacity="0.39"></path><path d="M291 545H341C369 545 391 567 391 595H341C313 595 291 573 291 545Z " transform="matrix(0.042167868534859466,0.21693487741591921,-0.21693487741591921,0.042167868534859466,450.2736369566869,471.98952173630164)" opacity="0.34"></path><path d="M622 232H672C700 232 722 254 722 282H672C644 282 622 260 622 232Z " transform="matrix(-0.289453301448923,0.16044658496602493,-0.16044658496602493,-0.289453301448923,907.7473909099447,223.56939337520444)" opacity="0.51"></path><path d="M1142 513H1192C1220 513 1242 535 1242 563H1192C1164 563 1142 541 1142 513Z " transform="matrix(-0.2398908035476008,-0.3992453423488507,0.3992453423488507,-0.2398908035476008,1263.1558436450584,1142.961700388439)" opacity="0.72"></path><path d="M174 368H224C252 368 274 390 274 418H224C196 418 174 396 174 368Z " transform="matrix(-0.02130123154938707,0.2434741907227241,-0.2434741907227241,-0.02130123154938707,324.4568328210932,346.8331652770189)" opacity="0.37"></path><path d="M705 480H755C783 480 805 502 805 530H755C727 530 705 508 705 480Z " transform="matrix(-0.36743428722237004,0.025693508304196543,-0.025693508304196543,-0.36743428722237004,1045.3881085465086,671.1557162776285)" opacity="0.56"></path><path d="M789 366H839C867 366 889 388 889 416H839C811 416 789 394 789 366Z " transform="matrix(-0.3843547702533166,-0.10298755029642571,0.10298755029642571,-0.3843547702533166,1121.2055200766301,627.689269867748)" opacity="0.61"></path><path d="M1094 176H1144C1172 176 1194 198 1194 226H1144C1116 226 1094 204 1094 176Z " transform="matrix(-0.23354596271245773,-0.4045134733205629,0.4045134733205629,-0.23354596271245773,1329.8693732056186,710.7061519839281)" opacity="0.72"></path><path d="M90 311H140C168 311 190 333 190 361H140C112 361 90 339 90 311Z " transform="matrix(-0.16219257413081611,0.24046037978895723,-0.24046037978895723,-0.16219257413081611,243.50164798740389,356.8322517375002)" opacity="0.44"></path><path d="M1201 281H1251C1279 281 1301 303 1301 331H1251C1223 331 1201 309 1201 281Z " transform="matrix(-0.27946087699928385,-0.35769361104057285,0.35769361104057285,-0.27946087699928385,1491.151312147689,838.9897357735374)" opacity="0.70"></path><path d="M1059 42H1109C1137 42 1159 64 1159 92H1109C1081 92 1059 70 1059 42Z " transform="matrix(0.16663323497969607,-0.5128443640432665,0.5128443640432665,0.16663323497969607,889.8431700166182,624.5799729803429)" opacity="0.83"></path><path d="M0 268H50C78 268 100 290 100 318H50C22 318 0 296 0 268Z " transform="matrix(-0.3404837594224303,0.09123234837315297,-0.09123234837315297,-0.3404837594224303,93.75526604445533,388.2001240921145)" opacity="0.54"></path><path d="M564 135H614C642 135 664 157 664 185H614C586 185 564 163 564 135Z " transform="matrix(-0.22664255625594817,0.21134760286947535,-0.21134760286947535,-0.22664255625594817,786.9741460002682,66.49538083909383)" opacity="0.47"></path><path d="M935 544H985C1013 544 1035 566 1035 594H985C957 594 935 572 935 544Z " transform="matrix(-0.32582027120687695,-0.29336988990889107,0.29336988990889107,-0.32582027120687695,1139.0054997806146,1043.3610758769707)" opacity="0.67"></path><path d="M1183 615H1233C1261 615 1283 637 1283 665H1233C1205 665 1183 643 1183 615Z " transform="matrix(-0.25789447432864193,-0.382344281634755,0.382344281634755,-0.25789447432864193,1306.2835466009724,1276.4829628259836)" opacity="0.71"></path><path d="M872 265H922C950 265 972 287 972 315H922C894 315 872 293 872 265Z " transform="matrix(-0.3621790789505614,-0.21761914557706596,0.21761914557706596,-0.3621790789505614,1192.8195585750684,595.6767851177176)" opacity="0.65"></path></g></svg>