<svg xmlns="http://www.w3.org/2000/svg" version="1.1" xmlns:xlink="http://www.w3.org/1999/xlink" xmlns:svgjs="http://svgjs.dev/svgjs" viewBox="0 0 2400 800"><defs><linearGradient x1="50%" y1="0%" x2="50%" y2="100%" id="sssurf-grad"><stop stop-color="hsl(208, 77%, 50%)" stop-opacity="1" offset="0%"></stop><stop stop-color="hsl(208, 74%, 93%)" stop-opacity="1" offset="100%"></stop></linearGradient></defs><g fill="hsl(119, 19.4%, 42.4%)" transform="matrix(1,0,0,1,0,-91.47079467773438)"><path d="M 0 302.9415481641151 Q 450 592.4152135789242 600 306.44958523030897 Q 1050 453.7889826653178 1200 308.9151497460415 Q 1650 500.78472316055627 1800 309.3990596193279 Q 2250 590.1380488758567 2400 321.9835315677269 L 2400 800 L 0 800 L 0 308.98141459163696 Z" transform="matrix(1,0,0,1,0,35)" opacity="0.05"></path><path d="M 0 302.9415481641151 Q 450 592.4152135789242 600 306.44958523030897 Q 1050 453.7889826653178 1200 308.9151497460415 Q 1650 500.78472316055627 1800 309.3990596193279 Q 2250 590.1380488758567 2400 321.9835315677269 L 2400 800 L 0 800 L 0 308.98141459163696 Z" transform="matrix(1,0,0,1,0,70)" opacity="0.21"></path><path d="M 0 302.9415481641151 Q 450 592.4152135789242 600 306.44958523030897 Q 1050 453.7889826653178 1200 308.9151497460415 Q 1650 500.78472316055627 1800 309.3990596193279 Q 2250 590.1380488758567 2400 321.9835315677269 L 2400 800 L 0 800 L 0 308.98141459163696 Z" transform="matrix(1,0,0,1,0,105)" opacity="0.37"></path><path d="M 0 302.9415481641151 Q 450 592.4152135789242 600 306.44958523030897 Q 1050 453.7889826653178 1200 308.9151497460415 Q 1650 500.78472316055627 1800 309.3990596193279 Q 2250 590.1380488758567 2400 321.9835315677269 L 2400 800 L 0 800 L 0 308.98141459163696 Z" transform="matrix(1,0,0,1,0,140)" opacity="0.53"></path><path d="M 0 302.9415481641151 Q 450 592.4152135789242 600 306.44958523030897 Q 1050 453.7889826653178 1200 308.9151497460415 Q 1650 500.78472316055627 1800 309.3990596193279 Q 2250 590.1380488758567 2400 321.9835315677269 L 2400 800 L 0 800 L 0 308.98141459163696 Z" transform="matrix(1,0,0,1,0,175)" opacity="0.68"></path><path d="M 0 302.9415481641151 Q 450 592.4152135789242 600 306.44958523030897 Q 1050 453.7889826653178 1200 308.9151497460415 Q 1650 500.78472316055627 1800 309.3990596193279 Q 2250 590.1380488758567 2400 321.9835315677269 L 2400 800 L 0 800 L 0 308.98141459163696 Z" transform="matrix(1,0,0,1,0,210)" opacity="0.84"></path><path d="M 0 302.9415481641151 Q 450 592.4152135789242 600 306.44958523030897 Q 1050 453.7889826653178 1200 308.9151497460415 Q 1650 500.78472316055627 1800 309.3990596193279 Q 2250 590.1380488758567 2400 321.9835315677269 L 2400 800 L 0 800 L 0 308.98141459163696 Z" transform="matrix(1,0,0,1,0,245)" opacity="1"></path></g></svg>